<svg width="700" height="250" viewBox="0 0 559 185" fill="none" xmlns="http://www.w3.org/2000/svg">
<path d="M33.4727 153.074C33.0039 150.941 31.7734 149.172 29.7812 147.766C27.7891 146.336 24.707 145 20.5352 143.758C16.3633 142.492 13.2812 141.227 11.2891 139.961C9.29688 138.672 7.89062 137.16 7.07031 135.426C6.27344 133.691 6.0625 131.758 6.4375 129.625C6.83594 127.117 7.90234 124.926 9.63672 123.051C11.3711 121.152 13.5859 119.688 16.2812 118.656C19 117.625 21.8828 117.109 24.9297 117.109C27.9531 117.109 30.625 117.766 32.9453 119.078C35.2891 120.391 36.9883 122.195 38.043 124.492C39.1211 126.789 39.4727 129.367 39.0977 132.227H37.1992C37.7852 128.406 36.918 125.254 34.5977 122.77C32.2773 120.262 29.0664 119.008 24.9648 119.008C21.1445 119.008 17.6875 119.875 14.5938 121.609C11.5 123.32 9.51953 125.605 8.65234 128.465C8.13672 130.176 8.04297 131.711 8.37109 133.07C8.83984 135.156 10.1172 136.891 12.2031 138.273C14.3125 139.633 17.2188 140.84 20.9219 141.895C26.6406 143.512 30.625 145.516 32.875 147.906C35.125 150.297 35.957 153.215 35.3711 156.66C34.9727 159.262 33.8828 161.547 32.1016 163.516C30.3438 165.461 28.0703 166.984 25.2812 168.086C22.4922 169.164 19.5391 169.703 16.4219 169.703C11.0781 169.703 6.92969 168.32 3.97656 165.555C1.02344 162.789 -0.136719 159.121 0.496094 154.551H2.39453C1.80859 158.582 2.80469 161.805 5.38281 164.219C7.96094 166.609 11.6289 167.805 16.3867 167.805C20.207 167.805 23.6641 166.961 26.7578 165.273C29.8516 163.562 31.9141 161.289 32.9453 158.453C33.6484 156.508 33.8242 154.715 33.4727 153.074Z" fill="#07BDF7"/>
<path d="M54.4258 120.695L52.668 130.961H61L60.7539 132.895H52.3164L47.5 160.738L47.3594 162.672C47.2891 164.266 47.6172 165.52 48.3438 166.434C49.0703 167.324 50.1719 167.781 51.6484 167.805C52.3047 167.805 53.582 167.699 55.4805 167.488L55.5508 169.281C54.4727 169.562 53.1953 169.703 51.7188 169.703C47.7344 169.703 45.6602 167.652 45.4961 163.551C45.4492 162.355 45.5312 161.137 45.7422 159.895L50.3828 132.895H43.5977L43.8789 130.961H50.7344L52.4922 120.695H54.4258ZM89.125 169L90.3203 162.848C88.6562 165.145 86.6406 166.867 84.2734 168.016C81.9062 169.141 79.3047 169.703 76.4688 169.703C73.5156 169.703 71.1719 168.918 69.4375 167.348C67.7266 165.777 66.7305 163.539 66.4492 160.633C66.2852 158.781 66.3672 156.871 66.6953 154.902L70.8086 130.961H72.707L68.5234 155.184C68.2656 156.777 68.1836 158.324 68.2773 159.824C68.3945 162.355 69.1562 164.324 70.5625 165.73C71.9688 167.113 73.9141 167.805 76.3984 167.805C79.8203 167.805 82.9023 166.879 85.6445 165.027C88.3867 163.152 90.1914 160.715 91.0586 157.715L95.6641 130.961H97.5977L91.0586 169H89.125ZM104.699 149.594C105.355 145.773 106.504 142.352 108.145 139.328C109.809 136.305 111.812 134.043 114.156 132.543C116.5 131.02 119.055 130.258 121.82 130.258C124.492 130.258 126.812 130.926 128.781 132.262C130.773 133.598 132.215 135.496 133.105 137.957L137.113 115H139.012L129.695 169H127.797L128.992 162.918C127.305 165.051 125.289 166.715 122.945 167.91C120.602 169.105 118.047 169.703 115.281 169.703C112.797 169.703 110.711 169.094 109.023 167.875C107.336 166.633 106.082 164.828 105.262 162.461C104.465 160.07 104.113 157.445 104.207 154.586C104.254 153.25 104.418 151.586 104.699 149.594ZM106.141 154.059C105.953 156.637 106.152 159.004 106.738 161.16C107.324 163.316 108.332 164.969 109.762 166.117C111.215 167.242 113.031 167.805 115.211 167.805C118.258 167.828 120.988 167.102 123.402 165.625C125.84 164.148 127.832 162.133 129.379 159.578L132.543 141.754C132.051 138.707 130.867 136.352 128.992 134.688C127.141 133 124.75 132.156 121.82 132.156C118.844 132.156 116.195 133.152 113.875 135.145C111.555 137.113 109.738 139.855 108.426 143.371C107.113 146.887 106.352 150.449 106.141 154.059ZM153.32 166.047L153.672 165.309L172.41 130.996H174.555L150.508 175.398C148.773 178.68 147.016 180.977 145.234 182.289C143.453 183.625 141.473 184.316 139.293 184.363C138.402 184.363 137.465 184.234 136.48 183.977L136.691 182.184C137.887 182.395 138.684 182.5 139.082 182.5C142.199 182.5 144.895 180.766 147.168 177.297L148.574 174.977L151.984 168.613L143.758 130.926H145.762L153.32 166.047ZM177.719 169H175.82L182.359 130.961H184.258L177.719 169ZM183.484 119.008C183.555 118.539 183.801 118.105 184.223 117.707C184.668 117.309 185.137 117.109 185.629 117.109C186.168 117.109 186.602 117.32 186.93 117.742C187.281 118.164 187.41 118.633 187.316 119.148C187.246 119.617 186.988 120.051 186.543 120.449C186.098 120.824 185.629 121.012 185.137 121.012C184.598 120.988 184.164 120.777 183.836 120.379C183.508 119.98 183.391 119.523 183.484 119.008ZM196.914 139.82C198.812 136.75 201.051 134.395 203.629 132.754C206.207 131.09 208.867 130.258 211.609 130.258C214.516 130.258 216.801 131.008 218.465 132.508C220.129 134.008 221.09 136.176 221.348 139.012C221.488 140.793 221.395 142.656 221.066 144.602L216.848 169H214.949L219.168 144.602C219.449 142.961 219.566 141.344 219.52 139.75C219.402 137.266 218.664 135.367 217.305 134.055C215.969 132.742 214.047 132.098 211.539 132.121C208.328 132.168 205.234 133.422 202.258 135.883C199.305 138.32 197.301 141.238 196.246 144.637L192.027 169H190.129L196.668 130.961H198.566L196.914 139.82ZM230.312 149.594C230.969 145.773 232.117 142.352 233.758 139.328C235.422 136.305 237.426 134.043 239.77 132.543C242.113 131.02 244.668 130.258 247.434 130.258C250.176 130.258 252.52 130.949 254.465 132.332C256.434 133.691 257.84 135.555 258.684 137.922L259.949 130.961H261.848L255.555 167.664C254.664 172.891 252.707 176.969 249.684 179.898C246.684 182.852 243.074 184.328 238.855 184.328C234.051 184.328 230.324 182.172 227.676 177.859L229.117 176.664C231.531 180.531 234.742 182.465 238.75 182.465C242.406 182.465 245.547 181.223 248.172 178.738C250.82 176.277 252.59 172.797 253.48 168.297L254.535 162.988C252.848 165.121 250.832 166.773 248.488 167.945C246.168 169.117 243.637 169.703 240.895 169.703C238.41 169.703 236.324 169.094 234.637 167.875C232.949 166.633 231.695 164.828 230.875 162.461C230.078 160.07 229.727 157.445 229.82 154.586C229.867 153.25 230.031 151.586 230.312 149.594ZM231.719 154.059C231.414 158.324 232.047 161.688 233.617 164.148C235.211 166.586 237.613 167.805 240.824 167.805C243.848 167.805 246.578 167.066 249.016 165.59C251.453 164.09 253.445 161.992 254.992 159.297L258.086 142.035C257.617 138.824 256.457 136.375 254.605 134.688C252.777 133 250.387 132.156 247.434 132.156C244.434 132.156 241.762 133.164 239.418 135.18C237.074 137.195 235.258 139.961 233.969 143.477C232.68 146.992 231.93 150.52 231.719 154.059Z" fill="black"/>
<path d="M153.833 60.0833H157.722L178.694 6.33333H183L205.361 60.0833H209.111V63H188.833V60.0833H194.389L189.111 47.1667H166.611L161.75 60.0833H168.417V63H153.833V60.0833ZM187.861 44.3889L177.444 18.6944L167.722 44.3889H187.861Z" fill="#07BDF7"/>
<path d="M211.863 60.0833H217.557V3.55555H211.585V0.638885H227.418V60.0833H233.668V63H211.863V60.0833ZM274.656 56.4722C270.767 61.287 265.258 63.7407 258.128 63.8333C255.721 63.8333 253.221 63.3241 250.628 62.3056C248.035 61.287 245.86 59.8981 244.1 58.1389C240.304 54.4352 238.406 49.713 238.406 43.9722C238.498 38.1389 240.397 33.463 244.1 29.9444C247.897 26.3333 252.665 24.5278 258.406 24.5278C266.924 24.5278 272.295 28.0926 274.517 35.2222C275.258 37.4444 275.628 39.9907 275.628 42.8611H248.684V43.9722C248.684 51.5648 250.86 56.5648 255.211 58.9722C256.693 59.8056 258.406 60.2222 260.35 60.2222C264.887 60.2222 269.008 58.3704 272.711 54.6667L274.656 56.4722ZM265.489 39.8056C265.489 35.9167 264.887 32.9074 263.684 30.7778C262.572 28.6481 260.721 27.5833 258.128 27.5833C252.665 27.5833 249.61 31.6574 248.961 39.8056H265.489ZM280.782 60.0833H285.921L297.588 46.3333L283.838 28H280.088V25.0833H299.81V28H294.671L303.421 39.5278L312.865 28H307.727V25.0833H321.199V28H317.032L305.227 42.0278L318.977 60.0833H322.727V63H303.143V60.0833H307.865L299.393 48.8333L290.088 60.0833H295.088V63H280.782V60.0833ZM336.173 29.3889C337.932 29.8519 338.951 31.287 339.228 33.6944C339.228 35.0833 338.719 36.2407 337.701 37.1667C336.682 38.0926 335.478 38.5556 334.089 38.5556C332.701 38.5556 331.497 38.0926 330.478 37.1667C329.552 36.2407 329.089 35.1296 329.089 33.8333C329.089 32.537 329.367 31.4722 329.923 30.6389C331.312 28.3241 333.812 26.6111 337.423 25.5C339.738 24.8519 341.913 24.5278 343.951 24.5278C349.506 24.5278 353.58 25.6852 356.173 28C358.858 30.2222 360.201 33.3241 360.201 37.3056V57.0278C360.201 59.1574 360.71 60.2222 361.728 60.2222C362.747 60.1296 363.719 59.4815 364.645 58.2778L366.589 59.9444C364.923 62.4444 362.191 63.6944 358.395 63.6944C357.006 63.6944 355.617 63.2778 354.228 62.4444C352.839 61.6111 351.913 60.4074 351.451 58.8333C348.58 62.1667 344.738 63.8333 339.923 63.8333C336.312 63.8333 333.163 62.8148 330.478 60.7778C327.793 58.7407 326.451 56.0556 326.451 52.7222C326.451 49.3889 327.747 46.7963 330.339 44.9444C332.932 43.0926 336.265 42.1667 340.339 42.1667C344.506 42.1667 347.932 43.1389 350.617 45.0833V36.3333C350.617 33.3704 350.247 31.3333 349.506 30.2222C348.302 28.3704 346.543 27.4444 344.228 27.4444C340.154 27.4444 337.469 28.0926 336.173 29.3889ZM342.701 60.0833C345.849 60.0833 348.58 58.6481 350.895 55.7778V48.4167C348.765 46.3796 346.404 45.3611 343.812 45.3611C341.312 45.3611 339.413 45.963 338.117 47.1667C336.913 48.2778 336.312 50.1296 336.312 52.7222C336.312 56.6111 337.701 58.9259 340.478 59.6667C341.219 59.9444 341.96 60.0833 342.701 60.0833Z" fill="black"/>
<path d="M309.027 153.707H284.77L276.578 169H274.469L301.82 117.848L304.105 117.812L313.949 169H311.945L309.027 153.707ZM285.754 151.809H308.641L302.734 120.203L285.754 151.809Z" fill="#07BDF7"/>
<path d="M346.012 159.684C346.855 155.277 343.645 152.148 336.379 150.297L332.477 149.172C327.086 147.414 324.719 144.309 325.375 139.855C325.797 136.973 327.32 134.652 329.945 132.895C332.57 131.137 335.617 130.258 339.086 130.258C342.906 130.258 345.895 131.242 348.051 133.211C350.207 135.18 351.121 137.816 350.793 141.121H348.895C349.176 138.449 348.391 136.293 346.539 134.652C344.688 132.988 342.215 132.156 339.121 132.156C336.121 132.156 333.508 132.848 331.281 134.23C329.055 135.613 327.719 137.465 327.273 139.785C326.57 143.512 328.727 146.16 333.742 147.73L338.98 149.242L340.738 149.84C346.199 151.832 348.59 155.125 347.91 159.719C347.465 162.742 345.895 165.168 343.199 166.996C340.504 168.801 337.281 169.703 333.531 169.703C329.617 169.703 326.488 168.754 324.145 166.855C321.801 164.934 320.793 162.426 321.121 159.332H322.984C322.867 161.957 323.734 164.031 325.586 165.555C327.461 167.055 330.098 167.805 333.496 167.805C336.73 167.734 339.52 166.961 341.863 165.484C344.207 163.984 345.59 162.051 346.012 159.684ZM381.098 159.684C381.941 155.277 378.73 152.148 371.465 150.297L367.562 149.172C362.172 147.414 359.805 144.309 360.461 139.855C360.883 136.973 362.406 134.652 365.031 132.895C367.656 131.137 370.703 130.258 374.172 130.258C377.992 130.258 380.98 131.242 383.137 133.211C385.293 135.18 386.207 137.816 385.879 141.121H383.98C384.262 138.449 383.477 136.293 381.625 134.652C379.773 132.988 377.301 132.156 374.207 132.156C371.207 132.156 368.594 132.848 366.367 134.23C364.141 135.613 362.805 137.465 362.359 139.785C361.656 143.512 363.812 146.16 368.828 147.73L374.066 149.242L375.824 149.84C381.285 151.832 383.676 155.125 382.996 159.719C382.551 162.742 380.98 165.168 378.285 166.996C375.59 168.801 372.367 169.703 368.617 169.703C364.703 169.703 361.574 168.754 359.23 166.855C356.887 164.934 355.879 162.426 356.207 159.332H358.07C357.953 161.957 358.82 164.031 360.672 165.555C362.547 167.055 365.184 167.805 368.582 167.805C371.816 167.734 374.605 166.961 376.949 165.484C379.293 163.984 380.676 162.051 381.098 159.684ZM393.789 169H391.891L398.43 130.961H400.328L393.789 169ZM399.555 119.008C399.625 118.539 399.871 118.105 400.293 117.707C400.738 117.309 401.207 117.109 401.699 117.109C402.238 117.109 402.672 117.32 403 117.742C403.352 118.164 403.48 118.633 403.387 119.148C403.316 119.617 403.059 120.051 402.613 120.449C402.168 120.824 401.699 121.012 401.207 121.012C400.668 120.988 400.234 120.777 399.906 120.379C399.578 119.98 399.461 119.523 399.555 119.008ZM430.949 159.684C431.793 155.277 428.582 152.148 421.316 150.297L417.414 149.172C412.023 147.414 409.656 144.309 410.312 139.855C410.734 136.973 412.258 134.652 414.883 132.895C417.508 131.137 420.555 130.258 424.023 130.258C427.844 130.258 430.832 131.242 432.988 133.211C435.145 135.18 436.059 137.816 435.73 141.121H433.832C434.113 138.449 433.328 136.293 431.477 134.652C429.625 132.988 427.152 132.156 424.059 132.156C421.059 132.156 418.445 132.848 416.219 134.23C413.992 135.613 412.656 137.465 412.211 139.785C411.508 143.512 413.664 146.16 418.68 147.73L423.918 149.242L425.676 149.84C431.137 151.832 433.527 155.125 432.848 159.719C432.402 162.742 430.832 165.168 428.137 166.996C425.441 168.801 422.219 169.703 418.469 169.703C414.555 169.703 411.426 168.754 409.082 166.855C406.738 164.934 405.73 162.426 406.059 159.332H407.922C407.805 161.957 408.672 164.031 410.523 165.555C412.398 167.055 415.035 167.805 418.434 167.805C421.668 167.734 424.457 166.961 426.801 165.484C429.145 163.984 430.527 162.051 430.949 159.684ZM453.801 120.695L452.043 130.961H460.375L460.129 132.895H451.691L446.875 160.738L446.734 162.672C446.664 164.266 446.992 165.52 447.719 166.434C448.445 167.324 449.547 167.781 451.023 167.805C451.68 167.805 452.957 167.699 454.855 167.488L454.926 169.281C453.848 169.562 452.57 169.703 451.094 169.703C447.109 169.703 445.035 167.652 444.871 163.551C444.824 162.355 444.906 161.137 445.117 159.895L449.758 132.895H442.973L443.254 130.961H450.109L451.867 120.695H453.801ZM487.938 169C487.867 166.938 488.09 164.617 488.605 162.039C486.637 164.453 484.293 166.34 481.574 167.699C478.879 169.059 475.949 169.727 472.785 169.703C469.598 169.703 467.055 168.719 465.156 166.75C463.258 164.781 462.543 162.32 463.012 159.367C463.598 155.781 465.578 152.98 468.953 150.965C472.352 148.949 476.652 147.883 481.855 147.766H490.891L491.91 142.211C492.402 139.094 491.781 136.645 490.047 134.863C488.312 133.059 485.816 132.156 482.559 132.156C479.371 132.156 476.488 133.012 473.91 134.723C471.332 136.41 469.715 138.637 469.059 141.402L467.16 141.332C467.816 138.074 469.621 135.414 472.574 133.352C475.527 131.289 478.855 130.258 482.559 130.258C486.426 130.258 489.391 131.359 491.453 133.562C493.516 135.742 494.277 138.648 493.738 142.281L490.258 162.602L490.012 164.992C489.895 166.234 489.941 167.465 490.152 168.684L490.117 169H487.938ZM472.75 167.84C475.891 167.887 478.879 167.137 481.715 165.59C484.551 164.02 486.965 161.734 488.957 158.734L490.574 149.699H482.066C477.332 149.793 473.418 150.707 470.324 152.441C467.254 154.152 465.438 156.508 464.875 159.508C464.453 161.828 465.004 163.785 466.527 165.379C468.074 166.973 470.148 167.793 472.75 167.84ZM507.836 139.82C509.734 136.75 511.973 134.395 514.551 132.754C517.129 131.09 519.789 130.258 522.531 130.258C525.438 130.258 527.723 131.008 529.387 132.508C531.051 134.008 532.012 136.176 532.27 139.012C532.41 140.793 532.316 142.656 531.988 144.602L527.77 169H525.871L530.09 144.602C530.371 142.961 530.488 141.344 530.441 139.75C530.324 137.266 529.586 135.367 528.227 134.055C526.891 132.742 524.969 132.098 522.461 132.121C519.25 132.168 516.156 133.422 513.18 135.883C510.227 138.32 508.223 141.238 507.168 144.637L502.949 169H501.051L507.59 130.961H509.488L507.836 139.82ZM552.168 120.695L550.41 130.961H558.742L558.496 132.895H550.059L545.242 160.738L545.102 162.672C545.031 164.266 545.359 165.52 546.086 166.434C546.812 167.324 547.914 167.781 549.391 167.805C550.047 167.805 551.324 167.699 553.223 167.488L553.293 169.281C552.215 169.562 550.938 169.703 549.461 169.703C545.477 169.703 543.402 167.652 543.238 163.551C543.191 162.355 543.273 161.137 543.484 159.895L548.125 132.895H541.34L541.621 130.961H548.477L550.234 120.695H552.168Z" fill="black"/>
<path d="M428.048 89.3546C428.244 89.16 428.245 88.8434 428.051 88.6475L424.879 85.4558C424.685 85.2599 424.368 85.259 424.172 85.4536C423.976 85.6483 423.975 85.9649 424.17 86.1607L426.989 88.9978L424.151 91.8176C423.955 92.0122 423.954 92.3288 424.149 92.5247C424.343 92.7205 424.66 92.7215 424.856 92.5268L428.048 89.3546ZM101.792 88.5L427.694 89.5L427.698 88.5L101.795 87.5L101.792 88.5Z" fill="#07BDF7"/>
</svg>
