<!-- <svg width="500" height="200" viewBox="0 0 559 185" fill="none" xmlns="http://www.w3.org/2000/svg"> -->
<!-- <path d="M33.4727 153.074C33.0039 150.941 31.7734 149.172 29.7812 147.766C27.7891 146.336 24.707 145 20.5352 143.758C16.3633 142.492 13.2812 141.227 11.2891 139.961C9.29688 138.672 7.89062 137.16 7.07031 135.426C6.27344 133.691 6.0625 131.758 6.4375 129.625C6.83594 127.117 7.90234 124.926 9.63672 123.051C11.3711 121.152 13.5859 119.688 16.2812 118.656C19 117.625 21.8828 117.109 24.9297 117.109C27.9531 117.109 30.625 117.766 32.9453 119.078C35.2891 120.391 36.9883 122.195 38.043 124.492C39.1211 126.789 39.4727 129.367 39.0977 132.227H37.1992C37.7852 128.406 36.918 125.254 34.5977 122.77C32.2773 120.262 29.0664 119.008 24.9648 119.008C21.1445 119.008 17.6875 119.875 14.5938 121.609C11.5 123.32 9.51953 125.605 8.65234 128.465C8.13672 130.176 8.04297 131.711 8.37109 133.07C8.83984 135.156 10.1172 136.891 12.2031 138.273C14.3125 139.633 17.2188 140.84 20.9219 141.895C26.6406 143.512 30.625 145.516 32.875 147.906C35.125 150.297 35.957 153.215 35.3711 156.66C34.9727 159.262 33.8828 161.547 32.1016 163.516C30.3438 165.461 28.0703 166.984 25.2812 168.086C22.4922 169.164 19.5391 169.703 16.4219 169.703C11.0781 169.703 6.92969 168.32 3.97656 165.555C1.02344 162.789 -0.136719 159.121 0.496094 154.551H2.39453C1.80859 158.582 2.80469 161.805 5.38281 164.219C7.96094 166.609 11.6289 167.805 16.3867 167.805C20.207 167.805 23.6641 166.961 26.7578 165.273C29.8516 163.562 31.9141 161.289 32.9453 158.453C33.6484 156.508 33.8242 154.715 33.4727 153.074Z" fill="#07BDF7"/> -->
<!-- <path d="M54.4258 120.695L52.668 130.961H61L60.7539 132.895H52.3164L47.5 160.738L47.3594 162.672C47.2891 164.266 47.6172 165.52 48.3438 166.434C49.0703 167.324 50.1719 167.781 51.6484 167.805C52.3047 167.805 53.582 167.699 55.4805 167.488L55.5508 169.281C54.4727 169.562 53.1953 169.703 51.7188 169.703C47.7344 169.703 45.6602 167.652 45.4961 163.551C45.4492 162.355 45.5312 161.137 45.7422 159.895L50.3828 132.895H43.5977L43.8789 130.961H50.7344L52.4922 120.695H54.4258ZM89.125 169L90.3203 162.848C88.6562 165.145 86.6406 166.867 84.2734 168.016C81.9062 169.141 79.3047 169.703 76.4688 169.703C73.5156 169.703 71.1719 168.918 69.4375 167.348C67.7266 165.777 66.7305 163.539 66.4492 160.633C66.2852 158.781 66.3672 156.871 66.6953 154.902L70.8086 130.961H72.707L68.5234 155.184C68.2656 156.777 68.1836 158.324 68.2773 159.824C68.3945 162.355 69.1562 164.324 70.5625 165.73C71.9688 167.113 73.9141 167.805 76.3984 167.805C79.8203 167.805 82.9023 166.879 85.6445 165.027C88.3867 163.152 90.1914 160.715 91.0586 157.715L95.6641 130.961H97.5977L91.0586 169H89.125ZM104.699 149.594C105.355 145.773 106.504 142.352 108.145 139.328C109.809 136.305 111.812 134.043 114.156 132.543C116.5 131.02 119.055 130.258 121.82 130.258C124.492 130.258 126.812 130.926 128.781 132.262C130.773 133.598 132.215 135.496 133.105 137.957L137.113 115H139.012L129.695 169H127.797L128.992 162.918C127.305 165.051 125.289 166.715 122.945 167.91C120.602 169.105 118.047 169.703 115.281 169.703C112.797 169.703 110.711 169.094 109.023 167.875C107.336 166.633 106.082 164.828 105.262 162.461C104.465 160.07 104.113 157.445 104.207 154.586C104.254 153.25 104.418 151.586 104.699 149.594ZM106.141 154.059C105.953 156.637 106.152 159.004 106.738 161.16C107.324 163.316 108.332 164.969 109.762 166.117C111.215 167.242 113.031 167.805 115.211 167.805C118.258 167.828 120.988 167.102 123.402 165.625C125.84 164.148 127.832 162.133 129.379 159.578L132.543 141.754C132.051 138.707 130.867 136.352 128.992 134.688C127.141 133 124.75 132.156 121.82 132.156C118.844 132.156 116.195 133.152 113.875 135.145C111.555 137.113 109.738 139.855 108.426 143.371C107.113 146.887 106.352 150.449 106.141 154.059ZM153.32 166.047L153.672 165.309L172.41 130.996H174.555L150.508 175.398C148.773 178.68 147.016 180.977 145.234 182.289C143.453 183.625 141.473 184.316 139.293 184.363C138.402 184.363 137.465 184.234 136.48 183.977L136.691 182.184C137.887 182.395 138.684 182.5 139.082 182.5C142.199 182.5 144.895 180.766 147.168 177.297L148.574 174.977L151.984 168.613L143.758 130.926H145.762L153.32 166.047ZM177.719 169H175.82L182.359 130.961H184.258L177.719 169ZM183.484 119.008C183.555 118.539 183.801 118.105 184.223 117.707C184.668 117.309 185.137 117.109 185.629 117.109C186.168 117.109 186.602 117.32 186.93 117.742C187.281 118.164 187.41 118.633 187.316 119.148C187.246 119.617 186.988 120.051 186.543 120.449C186.098 120.824 185.629 121.012 185.137 121.012C184.598 120.988 184.164 120.777 183.836 120.379C183.508 119.98 183.391 119.523 183.484 119.008ZM196.914 139.82C198.812 136.75 201.051 134.395 203.629 132.754C206.207 131.09 208.867 130.258 211.609 130.258C214.516 130.258 216.801 131.008 218.465 132.508C220.129 134.008 221.09 136.176 221.348 139.012C221.488 140.793 221.395 142.656 221.066 144.602L216.848 169H214.949L219.168 144.602C219.449 142.961 219.566 141.344 219.52 139.75C219.402 137.266 218.664 135.367 217.305 134.055C215.969 132.742 214.047 132.098 211.539 132.121C208.328 132.168 205.234 133.422 202.258 135.883C199.305 138.32 197.301 141.238 196.246 144.637L192.027 169H190.129L196.668 130.961H198.566L196.914 139.82ZM230.312 149.594C230.969 145.773 232.117 142.352 233.758 139.328C235.422 136.305 237.426 134.043 239.77 132.543C242.113 131.02 244.668 130.258 247.434 130.258C250.176 130.258 252.52 130.949 254.465 132.332C256.434 133.691 257.84 135.555 258.684 137.922L259.949 130.961H261.848L255.555 167.664C254.664 172.891 252.707 176.969 249.684 179.898C246.684 182.852 243.074 184.328 238.855 184.328C234.051 184.328 230.324 182.172 227.676 177.859L229.117 176.664C231.531 180.531 234.742 182.465 238.75 182.465C242.406 182.465 245.547 181.223 248.172 178.738C250.82 176.277 252.59 172.797 253.48 168.297L254.535 162.988C252.848 165.121 250.832 166.773 248.488 167.945C246.168 169.117 243.637 169.703 240.895 169.703C238.41 169.703 236.324 169.094 234.637 167.875C232.949 166.633 231.695 164.828 230.875 162.461C230.078 160.07 229.727 157.445 229.82 154.586C229.867 153.25 230.031 151.586 230.312 149.594ZM231.719 154.059C231.414 158.324 232.047 161.688 233.617 164.148C235.211 166.586 237.613 167.805 240.824 167.805C243.848 167.805 246.578 167.066 249.016 165.59C251.453 164.09 253.445 161.992 254.992 159.297L258.086 142.035C257.617 138.824 256.457 136.375 254.605 134.688C252.777 133 250.387 132.156 247.434 132.156C244.434 132.156 241.762 133.164 239.418 135.18C237.074 137.195 235.258 139.961 233.969 143.477C232.68 146.992 231.93 150.52 231.719 154.059Z" fill="black"/> -->
<!-- <path d="M153.833 60.0833H157.722L178.694 6.33333H183L205.361 60.0833H209.111V63H188.833V60.0833H194.389L189.111 47.1667H166.611L161.75 60.0833H168.417V63H153.833V60.0833ZM187.861 44.3889L177.444 18.6944L167.722 44.3889H187.861Z" fill="#07BDF7"/> -->
<!-- <path d="M211.863 60.0833H217.557V3.55555H211.585V0.638885H227.418V60.0833H233.668V63H211.863V60.0833ZM274.656 56.4722C270.767 61.287 265.258 63.7407 258.128 63.8333C255.721 63.8333 253.221 63.3241 250.628 62.3056C248.035 61.287 245.86 59.8981 244.1 58.1389C240.304 54.4352 238.406 49.713 238.406 43.9722C238.498 38.1389 240.397 33.463 244.1 29.9444C247.897 26.3333 252.665 24.5278 258.406 24.5278C266.924 24.5278 272.295 28.0926 274.517 35.2222C275.258 37.4444 275.628 39.9907 275.628 42.8611H248.684V43.9722C248.684 51.5648 250.86 56.5648 255.211 58.9722C256.693 59.8056 258.406 60.2222 260.35 60.2222C264.887 60.2222 269.008 58.3704 272.711 54.6667L274.656 56.4722ZM265.489 39.8056C265.489 35.9167 264.887 32.9074 263.684 30.7778C262.572 28.6481 260.721 27.5833 258.128 27.5833C252.665 27.5833 249.61 31.6574 248.961 39.8056H265.489ZM280.782 60.0833H285.921L297.588 46.3333L283.838 28H280.088V25.0833H299.81V28H294.671L303.421 39.5278L312.865 28H307.727V25.0833H321.199V28H317.032L305.227 42.0278L318.977 60.0833H322.727V63H303.143V60.0833H307.865L299.393 48.8333L290.088 60.0833H295.088V63H280.782V60.0833ZM336.173 29.3889C337.932 29.8519 338.951 31.287 339.228 33.6944C339.228 35.0833 338.719 36.2407 337.701 37.1667C336.682 38.0926 335.478 38.5556 334.089 38.5556C332.701 38.5556 331.497 38.0926 330.478 37.1667C329.552 36.2407 329.089 35.1296 329.089 33.8333C329.089 32.537 329.367 31.4722 329.923 30.6389C331.312 28.3241 333.812 26.6111 337.423 25.5C339.738 24.8519 341.913 24.5278 343.951 24.5278C349.506 24.5278 353.58 25.6852 356.173 28C358.858 30.2222 360.201 33.3241 360.201 37.3056V57.0278C360.201 59.1574 360.71 60.2222 361.728 60.2222C362.747 60.1296 363.719 59.4815 364.645 58.2778L366.589 59.9444C364.923 62.4444 362.191 63.6944 358.395 63.6944C357.006 63.6944 355.617 63.2778 354.228 62.4444C352.839 61.6111 351.913 60.4074 351.451 58.8333C348.58 62.1667 344.738 63.8333 339.923 63.8333C336.312 63.8333 333.163 62.8148 330.478 60.7778C327.793 58.7407 326.451 56.0556 326.451 52.7222C326.451 49.3889 327.747 46.7963 330.339 44.9444C332.932 43.0926 336.265 42.1667 340.339 42.1667C344.506 42.1667 347.932 43.1389 350.617 45.0833V36.3333C350.617 33.3704 350.247 31.3333 349.506 30.2222C348.302 28.3704 346.543 27.4444 344.228 27.4444C340.154 27.4444 337.469 28.0926 336.173 29.3889ZM342.701 60.0833C345.849 60.0833 348.58 58.6481 350.895 55.7778V48.4167C348.765 46.3796 346.404 45.3611 343.812 45.3611C341.312 45.3611 339.413 45.963 338.117 47.1667C336.913 48.2778 336.312 50.1296 336.312 52.7222C336.312 56.6111 337.701 58.9259 340.478 59.6667C341.219 59.9444 341.96 60.0833 342.701 60.0833Z" fill="black"/> -->
<!-- <path d="M309.027 153.707H284.77L276.578 169H274.469L301.82 117.848L304.105 117.812L313.949 169H311.945L309.027 153.707ZM285.754 151.809H308.641L302.734 120.203L285.754 151.809Z" fill="#07BDF7"/> -->
<!-- <path d="M346.012 159.684C346.855 155.277 343.645 152.148 336.379 150.297L332.477 149.172C327.086 147.414 324.719 144.309 325.375 139.855C325.797 136.973 327.32 134.652 329.945 132.895C332.57 131.137 335.617 130.258 339.086 130.258C342.906 130.258 345.895 131.242 348.051 133.211C350.207 135.18 351.121 137.816 350.793 141.121H348.895C349.176 138.449 348.391 136.293 346.539 134.652C344.688 132.988 342.215 132.156 339.121 132.156C336.121 132.156 333.508 132.848 331.281 134.23C329.055 135.613 327.719 137.465 327.273 139.785C326.57 143.512 328.727 146.16 333.742 147.73L338.98 149.242L340.738 149.84C346.199 151.832 348.59 155.125 347.91 159.719C347.465 162.742 345.895 165.168 343.199 166.996C340.504 168.801 337.281 169.703 333.531 169.703C329.617 169.703 326.488 168.754 324.145 166.855C321.801 164.934 320.793 162.426 321.121 159.332H322.984C322.867 161.957 323.734 164.031 325.586 165.555C327.461 167.055 330.098 167.805 333.496 167.805C336.73 167.734 339.52 166.961 341.863 165.484C344.207 163.984 345.59 162.051 346.012 159.684ZM381.098 159.684C381.941 155.277 378.73 152.148 371.465 150.297L367.562 149.172C362.172 147.414 359.805 144.309 360.461 139.855C360.883 136.973 362.406 134.652 365.031 132.895C367.656 131.137 370.703 130.258 374.172 130.258C377.992 130.258 380.98 131.242 383.137 133.211C385.293 135.18 386.207 137.816 385.879 141.121H383.98C384.262 138.449 383.477 136.293 381.625 134.652C379.773 132.988 377.301 132.156 374.207 132.156C371.207 132.156 368.594 132.848 366.367 134.23C364.141 135.613 362.805 137.465 362.359 139.785C361.656 143.512 363.812 146.16 368.828 147.73L374.066 149.242L375.824 149.84C381.285 151.832 383.676 155.125 382.996 159.719C382.551 162.742 380.98 165.168 378.285 166.996C375.59 168.801 372.367 169.703 368.617 169.703C364.703 169.703 361.574 168.754 359.23 166.855C356.887 164.934 355.879 162.426 356.207 159.332H358.07C357.953 161.957 358.82 164.031 360.672 165.555C362.547 167.055 365.184 167.805 368.582 167.805C371.816 167.734 374.605 166.961 376.949 165.484C379.293 163.984 380.676 162.051 381.098 159.684ZM393.789 169H391.891L398.43 130.961H400.328L393.789 169ZM399.555 119.008C399.625 118.539 399.871 118.105 400.293 117.707C400.738 117.309 401.207 117.109 401.699 117.109C402.238 117.109 402.672 117.32 403 117.742C403.352 118.164 403.48 118.633 403.387 119.148C403.316 119.617 403.059 120.051 402.613 120.449C402.168 120.824 401.699 121.012 401.207 121.012C400.668 120.988 400.234 120.777 399.906 120.379C399.578 119.98 399.461 119.523 399.555 119.008ZM430.949 159.684C431.793 155.277 428.582 152.148 421.316 150.297L417.414 149.172C412.023 147.414 409.656 144.309 410.312 139.855C410.734 136.973 412.258 134.652 414.883 132.895C417.508 131.137 420.555 130.258 424.023 130.258C427.844 130.258 430.832 131.242 432.988 133.211C435.145 135.18 436.059 137.816 435.73 141.121H433.832C434.113 138.449 433.328 136.293 431.477 134.652C429.625 132.988 427.152 132.156 424.059 132.156C421.059 132.156 418.445 132.848 416.219 134.23C413.992 135.613 412.656 137.465 412.211 139.785C411.508 143.512 413.664 146.16 418.68 147.73L423.918 149.242L425.676 149.84C431.137 151.832 433.527 155.125 432.848 159.719C432.402 162.742 430.832 165.168 428.137 166.996C425.441 168.801 422.219 169.703 418.469 169.703C414.555 169.703 411.426 168.754 409.082 166.855C406.738 164.934 405.73 162.426 406.059 159.332H407.922C407.805 161.957 408.672 164.031 410.523 165.555C412.398 167.055 415.035 167.805 418.434 167.805C421.668 167.734 424.457 166.961 426.801 165.484C429.145 163.984 430.527 162.051 430.949 159.684ZM453.801 120.695L452.043 130.961H460.375L460.129 132.895H451.691L446.875 160.738L446.734 162.672C446.664 164.266 446.992 165.52 447.719 166.434C448.445 167.324 449.547 167.781 451.023 167.805C451.68 167.805 452.957 167.699 454.855 167.488L454.926 169.281C453.848 169.562 452.57 169.703 451.094 169.703C447.109 169.703 445.035 167.652 444.871 163.551C444.824 162.355 444.906 161.137 445.117 159.895L449.758 132.895H442.973L443.254 130.961H450.109L451.867 120.695H453.801ZM487.938 169C487.867 166.938 488.09 164.617 488.605 162.039C486.637 164.453 484.293 166.34 481.574 167.699C478.879 169.059 475.949 169.727 472.785 169.703C469.598 169.703 467.055 168.719 465.156 166.75C463.258 164.781 462.543 162.32 463.012 159.367C463.598 155.781 465.578 152.98 468.953 150.965C472.352 148.949 476.652 147.883 481.855 147.766H490.891L491.91 142.211C492.402 139.094 491.781 136.645 490.047 134.863C488.312 133.059 485.816 132.156 482.559 132.156C479.371 132.156 476.488 133.012 473.91 134.723C471.332 136.41 469.715 138.637 469.059 141.402L467.16 141.332C467.816 138.074 469.621 135.414 472.574 133.352C475.527 131.289 478.855 130.258 482.559 130.258C486.426 130.258 489.391 131.359 491.453 133.562C493.516 135.742 494.277 138.648 493.738 142.281L490.258 162.602L490.012 164.992C489.895 166.234 489.941 167.465 490.152 168.684L490.117 169H487.938ZM472.75 167.84C475.891 167.887 478.879 167.137 481.715 165.59C484.551 164.02 486.965 161.734 488.957 158.734L490.574 149.699H482.066C477.332 149.793 473.418 150.707 470.324 152.441C467.254 154.152 465.438 156.508 464.875 159.508C464.453 161.828 465.004 163.785 466.527 165.379C468.074 166.973 470.148 167.793 472.75 167.84ZM507.836 139.82C509.734 136.75 511.973 134.395 514.551 132.754C517.129 131.09 519.789 130.258 522.531 130.258C525.438 130.258 527.723 131.008 529.387 132.508C531.051 134.008 532.012 136.176 532.27 139.012C532.41 140.793 532.316 142.656 531.988 144.602L527.77 169H525.871L530.09 144.602C530.371 142.961 530.488 141.344 530.441 139.75C530.324 137.266 529.586 135.367 528.227 134.055C526.891 132.742 524.969 132.098 522.461 132.121C519.25 132.168 516.156 133.422 513.18 135.883C510.227 138.32 508.223 141.238 507.168 144.637L502.949 169H501.051L507.59 130.961H509.488L507.836 139.82ZM552.168 120.695L550.41 130.961H558.742L558.496 132.895H550.059L545.242 160.738L545.102 162.672C545.031 164.266 545.359 165.52 546.086 166.434C546.812 167.324 547.914 167.781 549.391 167.805C550.047 167.805 551.324 167.699 553.223 167.488L553.293 169.281C552.215 169.562 550.938 169.703 549.461 169.703C545.477 169.703 543.402 167.652 543.238 163.551C543.191 162.355 543.273 161.137 543.484 159.895L548.125 132.895H541.34L541.621 130.961H548.477L550.234 120.695H552.168Z" fill="black"/> -->
<!-- <path d="M428.048 89.3546C428.244 89.16 428.245 88.8434 428.051 88.6475L424.879 85.4558C424.685 85.2599 424.368 85.259 424.172 85.4536C423.976 85.6483 423.975 85.9649 424.17 86.1607L426.989 88.9978L424.151 91.8176C423.955 92.0122 423.954 92.3288 424.149 92.5247C424.343 92.7205 424.66 92.7215 424.856 92.5268L428.048 89.3546ZM101.792 88.5L427.694 89.5L427.698 88.5L101.795 87.5L101.792 88.5Z" fill="#07BDF7"/> -->
<!-- </svg> -->

<svg width="500" height="78" viewBox="0 0 648 78" fill="none" xmlns="http://www.w3.org/2000/svg">
<path d="M33.2578 45.3516C33.8307 41.1849 31.6693 38.138 26.7734 36.2109L20.0156 33.75L17.75 32.7734C10.1458 29.3099 6.59115 24.4401 7.08594 18.1641C7.34635 15.013 8.42708 12.2266 10.3281 9.80469C12.2292 7.38281 14.7422 5.52083 17.8672 4.21875C21.0182 2.89062 24.3646 2.26562 27.9062 2.34375C31.3438 2.42188 34.4036 3.1901 37.0859 4.64844C39.7943 6.10677 41.8516 8.15104 43.2578 10.7812C44.6641 13.3854 45.2891 16.3281 45.1328 19.6094L37.75 19.5703C38.0104 16.0807 37.2292 13.3854 35.4062 11.4844C33.5833 9.55729 30.9792 8.56771 27.5938 8.51562C24.026 8.46354 21.0443 9.29688 18.6484 11.0156C16.2526 12.7344 14.8724 15.0781 14.5078 18.0469C13.987 21.9271 16.3698 24.8698 21.6562 26.875L27.4766 28.9453L30.4062 30.1953C37.75 33.5807 41.1484 38.6068 40.6016 45.2734C40.3151 48.4766 39.2344 51.25 37.3594 53.5938C35.4844 55.9115 32.9323 57.7083 29.7031 58.9844C26.5 60.2604 23.0495 60.8594 19.3516 60.7812C15.7839 60.7552 12.5156 60 9.54688 58.5156C6.60417 57.0052 4.36458 54.9479 2.82812 52.3438C1.29167 49.7396 0.614583 46.7839 0.796875 43.4766L8.14062 43.5156C7.90625 46.901 8.81771 49.5964 10.875 51.6016C12.9583 53.5807 15.888 54.5964 19.6641 54.6484C23.4401 54.7005 26.5521 53.8802 29 52.1875C31.4479 50.4948 32.8672 48.2161 33.2578 45.3516Z" fill="#FF165D"/>
<path d="M65.3672 7.5L63.5703 17.7344H71.2656L70.2891 23.3203H62.6328L58.2188 49.6094C58.1406 50.2865 58.1276 50.9115 58.1797 51.4844C58.362 53.5156 59.4688 54.5312 61.5 54.5312C62.3594 54.5312 63.5052 54.401 64.9375 54.1406L64.3906 60.0391C62.6979 60.5078 60.9792 60.7422 59.2344 60.7422C56.4219 60.6901 54.3125 59.6615 52.9062 57.6562C51.5 55.625 50.9531 52.9036 51.2656 49.4922L55.5625 23.3203H48.1016L49.0781 17.7344H56.5391L58.3359 7.5H65.3672ZM99.3125 55.8203C96.0052 59.2318 91.7995 60.8854 86.6953 60.7812C82.6589 60.6771 79.6641 59.2318 77.7109 56.4453C75.7839 53.6589 75.0677 49.8568 75.5625 45.0391L80.0938 17.7344H87.1641L82.5938 45.1562C82.4635 46.3021 82.4375 47.4219 82.5156 48.5156C82.6458 50.3906 83.2057 51.862 84.1953 52.9297C85.1849 53.9974 86.5651 54.5703 88.3359 54.6484C93.388 54.8047 97.2943 52.7604 100.055 48.5156L105.367 17.7344H112.438L105.094 60H98.4141L99.3125 55.8203ZM117.711 38.7891C118.232 34.4922 119.417 30.612 121.266 27.1484C123.115 23.6849 125.393 21.0938 128.102 19.375C130.81 17.6562 133.792 16.8359 137.047 16.9141C141.76 17.0182 145.38 18.737 147.906 22.0703L151.969 0H159.039L148.648 60H142.203L142.945 55.4688C139.612 59.1146 135.497 60.8854 130.602 60.7812C126.695 60.6771 123.583 59.1536 121.266 56.2109C118.948 53.2422 117.698 49.2708 117.516 44.2969C117.438 42.7604 117.503 40.9245 117.711 38.7891ZM124.508 42.8516C124.43 46.5755 125.094 49.4661 126.5 51.5234C127.906 53.5807 129.964 54.6354 132.672 54.6875C136.76 54.8698 140.393 52.8125 143.57 48.5156L146.93 28.9844C145.367 25.1302 142.529 23.151 138.414 23.0469C135.628 22.9688 133.167 23.8151 131.031 25.5859C128.922 27.3307 127.307 29.7917 126.188 32.9688C125.094 36.1198 124.534 39.4141 124.508 42.8516ZM174.977 49.3359L190.016 17.7344H197.828L172.75 67.0312C169.26 73.8802 164.781 77.2656 159.312 77.1875C158.349 77.1615 156.93 76.9271 155.055 76.4844L155.68 70.625L157.516 70.8203C159.755 70.9245 161.682 70.4167 163.297 69.2969C164.938 68.2031 166.383 66.4193 167.633 63.9453L170.172 59.1016L162.867 17.7344H170.25L174.977 49.3359ZM204.586 60H197.555L204.898 17.7344H211.93L204.586 60ZM210.406 2.30469C211.604 2.2526 212.594 2.61719 213.375 3.39844C214.182 4.15365 214.586 5.15625 214.586 6.40625C214.56 7.63021 214.156 8.63281 213.375 9.41406C212.62 10.1953 211.63 10.612 210.406 10.6641C209.182 10.7161 208.18 10.3646 207.398 9.60938C206.617 8.85417 206.24 7.86458 206.266 6.64062C206.292 5.41667 206.682 4.40104 207.438 3.59375C208.193 2.78646 209.182 2.35677 210.406 2.30469ZM230.172 17.6953L229.156 23.0469C232.958 18.8802 237.281 16.849 242.125 16.9531C246.109 17.0573 249.052 18.4375 250.953 21.0938C252.854 23.75 253.557 27.487 253.062 32.3047L248.453 60H241.383L246.031 32.1875C246.188 30.9115 246.201 29.7266 246.07 28.6328C245.628 24.987 243.479 23.125 239.625 23.0469C235.38 22.9688 231.656 25.2344 228.453 29.8438L223.219 60H216.148L223.492 17.7344L230.172 17.6953ZM261.422 38.7891C262.047 34.1797 263.284 30.1823 265.133 26.7969C267.008 23.3854 269.273 20.8724 271.93 19.2578C274.612 17.6172 277.542 16.8359 280.719 16.9141C285.615 17.0182 289.312 18.8672 291.812 22.4609L293.219 17.7344H299.703L292.672 59.1016C291.917 64.4922 289.729 68.8021 286.109 72.0312C282.49 75.2865 278.023 76.8359 272.711 76.6797C269.846 76.6276 267.099 75.9505 264.469 74.6484C261.865 73.3464 259.807 71.5625 258.297 69.2969L262.32 64.9609C264.872 68.737 268.245 70.6771 272.438 70.7812C275.797 70.8854 278.635 69.9479 280.953 67.9688C283.297 65.9896 284.846 63.1771 285.602 59.5312L286.383 55.7812C282.945 59.2188 278.922 60.8854 274.312 60.7812C271.682 60.7031 269.391 60 267.438 58.6719C265.51 57.3177 264.013 55.3776 262.945 52.8516C261.878 50.2995 261.292 47.4609 261.188 44.3359C261.135 42.7995 261.214 40.9505 261.422 38.7891ZM268.258 42.8125C268.18 46.5365 268.818 49.4271 270.172 51.4844C271.552 53.5156 273.622 54.5833 276.383 54.6875C280.602 54.7917 284.234 52.7214 287.281 48.4766L290.602 29.0625C289.039 25.2083 286.214 23.2031 282.125 23.0469C278.297 22.9427 275.146 24.5052 272.672 27.7344C270.224 30.9635 268.779 35.3255 268.336 40.8203L268.258 42.8125Z" fill="black"/>
<path d="M354.508 45.1562H331.461L323.688 60H315.836L346.734 3.125H353.18L364.43 60H357.203L354.508 45.1562ZM334.703 38.9844H353.414L348.688 12.4609L334.703 38.9844Z" fill="#FF165D"/>
<path d="M397.398 48.5547C397.789 45.638 396.188 43.5807 392.594 42.3828L385.25 40.2344C379.052 38.099 376.057 34.5573 376.266 29.6094C376.448 25.8854 378.141 22.8385 381.344 20.4688C384.573 18.0729 388.362 16.901 392.711 16.9531C396.982 17.0052 400.445 18.2552 403.102 20.7031C405.784 23.125 407.073 26.2891 406.969 30.1953L399.938 30.1562C399.99 28.0469 399.326 26.3281 397.945 25C396.565 23.6719 394.729 22.9818 392.438 22.9297C389.99 22.8776 387.88 23.4766 386.109 24.7266C384.469 25.8984 383.518 27.4349 383.258 29.3359C382.919 31.7839 384.417 33.5677 387.75 34.6875L391.305 35.6641C396.148 36.9141 399.586 38.5417 401.617 40.5469C403.648 42.5521 404.586 45.0391 404.43 48.0078C404.273 50.638 403.414 52.9297 401.852 54.8828C400.289 56.8359 398.206 58.3333 395.602 59.375C392.997 60.3906 390.224 60.8594 387.281 60.7812C382.802 60.7292 379.104 59.4271 376.188 56.875C373.271 54.2969 371.865 50.9896 371.969 46.9531L379.039 46.9922C379.039 49.362 379.794 51.263 381.305 52.6953C382.815 54.1276 384.885 54.8438 387.516 54.8438C390.094 54.8958 392.32 54.362 394.195 53.2422C396.07 52.0964 397.138 50.5339 397.398 48.5547ZM437.789 48.5547C438.18 45.638 436.578 43.5807 432.984 42.3828L425.641 40.2344C419.443 38.099 416.448 34.5573 416.656 29.6094C416.839 25.8854 418.531 22.8385 421.734 20.4688C424.964 18.0729 428.753 16.901 433.102 16.9531C437.372 17.0052 440.836 18.2552 443.492 20.7031C446.174 23.125 447.464 26.2891 447.359 30.1953L440.328 30.1562C440.38 28.0469 439.716 26.3281 438.336 25C436.956 23.6719 435.12 22.9818 432.828 22.9297C430.38 22.8776 428.271 23.4766 426.5 24.7266C424.859 25.8984 423.909 27.4349 423.648 29.3359C423.31 31.7839 424.807 33.5677 428.141 34.6875L431.695 35.6641C436.539 36.9141 439.977 38.5417 442.008 40.5469C444.039 42.5521 444.977 45.0391 444.82 48.0078C444.664 50.638 443.805 52.9297 442.242 54.8828C440.68 56.8359 438.596 58.3333 435.992 59.375C433.388 60.3906 430.615 60.8594 427.672 60.7812C423.193 60.7292 419.495 59.4271 416.578 56.875C413.661 54.2969 412.255 50.9896 412.359 46.9531L419.43 46.9922C419.43 49.362 420.185 51.263 421.695 52.6953C423.206 54.1276 425.276 54.8438 427.906 54.8438C430.484 54.8958 432.711 54.362 434.586 53.2422C436.461 52.0964 437.529 50.5339 437.789 48.5547ZM459.664 60H452.633L459.977 17.7344H467.008L459.664 60ZM465.484 2.30469C466.682 2.2526 467.672 2.61719 468.453 3.39844C469.26 4.15365 469.664 5.15625 469.664 6.40625C469.638 7.63021 469.234 8.63281 468.453 9.41406C467.698 10.1953 466.708 10.612 465.484 10.6641C464.26 10.7161 463.258 10.3646 462.477 9.60938C461.695 8.85417 461.318 7.86458 461.344 6.64062C461.37 5.41667 461.76 4.40104 462.516 3.59375C463.271 2.78646 464.26 2.35677 465.484 2.30469ZM497.398 48.5547C497.789 45.638 496.188 43.5807 492.594 42.3828L485.25 40.2344C479.052 38.099 476.057 34.5573 476.266 29.6094C476.448 25.8854 478.141 22.8385 481.344 20.4688C484.573 18.0729 488.362 16.901 492.711 16.9531C496.982 17.0052 500.445 18.2552 503.102 20.7031C505.784 23.125 507.073 26.2891 506.969 30.1953L499.938 30.1562C499.99 28.0469 499.326 26.3281 497.945 25C496.565 23.6719 494.729 22.9818 492.438 22.9297C489.99 22.8776 487.88 23.4766 486.109 24.7266C484.469 25.8984 483.518 27.4349 483.258 29.3359C482.919 31.7839 484.417 33.5677 487.75 34.6875L491.305 35.6641C496.148 36.9141 499.586 38.5417 501.617 40.5469C503.648 42.5521 504.586 45.0391 504.43 48.0078C504.273 50.638 503.414 52.9297 501.852 54.8828C500.289 56.8359 498.206 58.3333 495.602 59.375C492.997 60.3906 490.224 60.8594 487.281 60.7812C482.802 60.7292 479.104 59.4271 476.188 56.875C473.271 54.2969 471.865 50.9896 471.969 46.9531L479.039 46.9922C479.039 49.362 479.794 51.263 481.305 52.6953C482.815 54.1276 484.885 54.8438 487.516 54.8438C490.094 54.8958 492.32 54.362 494.195 53.2422C496.07 52.0964 497.138 50.5339 497.398 48.5547ZM530.289 7.5L528.492 17.7344H536.188L535.211 23.3203H527.555L523.141 49.6094C523.062 50.2865 523.049 50.9115 523.102 51.4844C523.284 53.5156 524.391 54.5312 526.422 54.5312C527.281 54.5312 528.427 54.401 529.859 54.1406L529.312 60.0391C527.62 60.5078 525.901 60.7422 524.156 60.7422C521.344 60.6901 519.234 59.6615 517.828 57.6562C516.422 55.625 515.875 52.9036 516.188 49.4922L520.484 23.3203H513.023L514 17.7344H521.461L523.258 7.5H530.289ZM563.258 60C563.076 59.2448 562.984 58.5026 562.984 57.7734L563.102 55.5469C559.221 59.1406 555.107 60.8854 550.758 60.7812C547.034 60.7292 544 59.5573 541.656 57.2656C539.339 54.9479 538.284 52.0573 538.492 48.5938C538.753 44.1146 540.706 40.625 544.352 38.125C548.023 35.599 552.841 34.3359 558.805 34.3359L566.188 34.375L566.656 31.0156C566.917 28.4896 566.422 26.4974 565.172 25.0391C563.948 23.5547 562.099 22.7865 559.625 22.7344C557.203 22.6823 555.055 23.2812 553.18 24.5312C551.331 25.7552 550.198 27.3828 549.781 29.4141L542.672 29.4531C542.906 26.9792 543.87 24.7917 545.562 22.8906C547.255 20.9635 549.43 19.4792 552.086 18.4375C554.742 17.3698 557.49 16.862 560.328 16.9141C564.729 17.0182 568.154 18.3594 570.602 20.9375C573.049 23.4896 574.078 26.888 573.688 31.1328L570.25 52.0703L570.055 55.0781C570.003 56.5104 570.159 57.9297 570.523 59.3359L570.445 60H563.258ZM552.164 54.5312C554.43 54.5833 556.565 54.0495 558.57 52.9297C560.602 51.7839 562.346 50.2083 563.805 48.2031L565.328 39.4922L559.977 39.4531C555.523 39.4531 552.112 40.1562 549.742 41.5625C547.372 42.9688 546.031 44.9609 545.719 47.5391C545.484 49.5182 545.94 51.1719 547.086 52.5C548.258 53.8021 549.951 54.4792 552.164 54.5312ZM594.078 17.6953L593.062 23.0469C596.865 18.8802 601.188 16.849 606.031 16.9531C610.016 17.0573 612.958 18.4375 614.859 21.0938C616.76 23.75 617.464 27.487 616.969 32.3047L612.359 60H605.289L609.938 32.1875C610.094 30.9115 610.107 29.7266 609.977 28.6328C609.534 24.987 607.385 23.125 603.531 23.0469C599.286 22.9688 595.562 25.2344 592.359 29.8438L587.125 60H580.055L587.398 17.7344L594.078 17.6953ZM641.93 7.5L640.133 17.7344H647.828L646.852 23.3203H639.195L634.781 49.6094C634.703 50.2865 634.69 50.9115 634.742 51.4844C634.924 53.5156 636.031 54.5312 638.062 54.5312C638.922 54.5312 640.068 54.401 641.5 54.1406L640.953 60.0391C639.26 60.5078 637.542 60.7422 635.797 60.7422C632.984 60.6901 630.875 59.6615 629.469 57.6562C628.062 55.625 627.516 52.9036 627.828 49.4922L632.125 23.3203H624.664L625.641 17.7344H633.102L634.898 7.5H641.93Z" fill="black"/>
</svg>
